<?xml version="1.0" encoding="UTF-8" standalone="no"?>
<!DOCTYPE svg PUBLIC "-//W3C//DTD SVG 1.1//EN"
 "http://www.w3.org/Graphics/SVG/1.1/DTD/svg11.dtd">
<!-- Generated by graphviz version 9.0.0 (20230911.1827)
 -->
<!-- Pages: 1 -->
<svg width="407pt" height="267pt"
 viewBox="0.00 0.00 406.80 266.77" xmlns="http://www.w3.org/2000/svg" xmlns:xlink="http://www.w3.org/1999/xlink">
<g id="graph0" class="graph" transform="scale(1 1) rotate(0) translate(4 262.77)">
<polygon fill="white" stroke="none" points="-4,4 -4,-262.77 402.8,-262.77 402.8,4 -4,4"/>
<!-- Sensore1 -->
<g id="node1" class="node">
<title>Sensore1</title>
<polygon fill="lightgray" stroke="black" points="176.8,-195.47 128.55,-195.47 128.55,-176.22 176.8,-176.22 176.8,-195.47"/>
<text text-anchor="middle" x="152.68" y="-182.92" font-family="Times New Roman,serif" font-size="9.00">Sensore1</text>
</g>
<!-- Sinistra -->
<g id="node7" class="node">
<title>Sinistra</title>
<ellipse fill="lightblue" stroke="black" cx="152.68" cy="-30.41" rx="30.41" ry="30.41"/>
<text text-anchor="middle" x="152.68" y="-27.48" font-family="Times New Roman,serif" font-size="9.00">Sinistra</text>
</g>
<!-- Sensore1&#45;&gt;Sinistra -->
<g id="edge1" class="edge">
<title>Sensore1&#45;&gt;Sinistra</title>
<path fill="none" stroke="green" stroke-width="0.39" d="M152.68,-176.16C152.68,-156.45 152.68,-107.32 152.68,-71.75"/>
<polygon fill="green" stroke="green" stroke-width="0.39" points="156.18,-71.79 152.68,-61.79 149.18,-71.79 156.18,-71.79"/>
</g>
<!-- Destra -->
<g id="node8" class="node">
<title>Destra</title>
<ellipse fill="lightblue" stroke="black" cx="296.68" cy="-30.41" rx="28.28" ry="28.28"/>
<text text-anchor="middle" x="296.68" y="-27.48" font-family="Times New Roman,serif" font-size="9.00">Destra</text>
</g>
<!-- Sensore1&#45;&gt;Destra -->
<g id="edge2" class="edge">
<title>Sensore1&#45;&gt;Destra</title>
<path fill="none" stroke="green" stroke-width="0.36" d="M177.05,-184.45C211.84,-182.4 274.74,-172.91 303.68,-132.17 316.88,-113.58 314.87,-87.88 309.69,-67.08"/>
<polygon fill="green" stroke="green" stroke-width="0.36" points="313.08,-66.22 306.99,-57.55 306.34,-68.12 313.08,-66.22"/>
</g>
<!-- 12 -->
<g id="node9" class="node">
<title>12</title>
<ellipse fill="white" stroke="black" cx="40.68" cy="-114.49" rx="17.68" ry="17.68"/>
<text text-anchor="middle" x="40.68" y="-111.56" font-family="Times New Roman,serif" font-size="9.00">12</text>
</g>
<!-- Sensore1&#45;&gt;12 -->
<g id="edge10" class="edge">
<title>Sensore1&#45;&gt;12</title>
<path fill="none" stroke="green" stroke-width="0.25" d="M138.04,-175.78C119.17,-164.09 86.16,-143.65 63.86,-129.85"/>
<polygon fill="green" stroke="green" stroke-width="0.25" points="65.99,-127.04 55.64,-124.75 62.3,-133 65.99,-127.04"/>
</g>
<!-- Sensore2 -->
<g id="node2" class="node">
<title>Sensore2</title>
<polygon fill="lightgray" stroke="black" points="294.8,-124.11 246.55,-124.11 246.55,-104.86 294.8,-104.86 294.8,-124.11"/>
<text text-anchor="middle" x="270.68" y="-111.56" font-family="Times New Roman,serif" font-size="9.00">Sensore2</text>
</g>
<!-- Sensore2&#45;&gt;Sinistra -->
<g id="edge3" class="edge">
<title>Sensore2&#45;&gt;Sinistra</title>
<path fill="none" stroke="red" stroke-width="0.84" d="M257.6,-104.39C240.54,-92.53 210.08,-71.34 186.36,-54.84"/>
<polygon fill="red" stroke="red" stroke-width="0.84" points="188.57,-52.11 178.36,-49.27 184.57,-57.85 188.57,-52.11"/>
</g>
<!-- Sensore2&#45;&gt;Destra -->
<g id="edge4" class="edge">
<title>Sensore2&#45;&gt;Destra</title>
<path fill="none" stroke="green" stroke-width="0.18" d="M273.56,-104.39C276.41,-95.39 280.96,-81.02 285.27,-67.41"/>
<polygon fill="green" stroke="green" stroke-width="0.18" points="288.58,-68.56 288.26,-57.97 281.91,-66.44 288.58,-68.56"/>
</g>
<!-- Sensore3 -->
<g id="node3" class="node">
<title>Sensore3</title>
<polygon fill="lightgray" stroke="black" points="64.8,-258.77 16.55,-258.77 16.55,-239.52 64.8,-239.52 64.8,-258.77"/>
<text text-anchor="middle" x="40.68" y="-246.22" font-family="Times New Roman,serif" font-size="9.00">Sensore3</text>
</g>
<!-- Sensore3&#45;&gt;12 -->
<g id="edge13" class="edge">
<title>Sensore3&#45;&gt;12</title>
<path fill="none" stroke="red" stroke-width="0.2" d="M41.71,-239.27C42.7,-230.28 44.12,-215.95 44.68,-203.52 45.38,-187.82 45.27,-183.87 44.68,-168.17 44.36,-159.88 43.77,-150.88 43.14,-142.7"/>
<polygon fill="red" stroke="red" stroke-width="0.2" points="46.64,-142.54 42.33,-132.86 39.66,-143.11 46.64,-142.54"/>
</g>
<!-- 20 -->
<g id="node10" class="node">
<title>20</title>
<ellipse fill="white" stroke="black" cx="17.68" cy="-185.84" rx="17.68" ry="17.68"/>
<text text-anchor="middle" x="17.68" y="-182.92" font-family="Times New Roman,serif" font-size="9.00">20</text>
</g>
<!-- Sensore3&#45;&gt;20 -->
<g id="edge11" class="edge">
<title>Sensore3&#45;&gt;20</title>
<path fill="none" stroke="green" stroke-width="0.11" d="M37.28,-239.1C34.58,-231.91 30.67,-221.48 27.05,-211.83"/>
<polygon fill="green" stroke="green" stroke-width="0.11" points="30.43,-210.88 23.64,-202.74 23.88,-213.34 30.43,-210.88"/>
</g>
<!-- Sensore4 -->
<g id="node4" class="node">
<title>Sensore4</title>
<polygon fill="lightgray" stroke="black" points="398.8,-124.11 350.55,-124.11 350.55,-104.86 398.8,-104.86 398.8,-124.11"/>
<text text-anchor="middle" x="374.68" y="-111.56" font-family="Times New Roman,serif" font-size="9.00">Sensore4</text>
</g>
<!-- Sensore4&#45;&gt;Destra -->
<g id="edge5" class="edge">
<title>Sensore4&#45;&gt;Destra</title>
<path fill="none" stroke="red" stroke-width="0.19" d="M366.03,-104.39C355.58,-93.39 337.5,-74.37 322.42,-58.5"/>
<polygon fill="red" stroke="red" stroke-width="0.19" points="325.37,-56.52 315.94,-51.68 320.29,-61.34 325.37,-56.52"/>
</g>
<!-- Sensore5 -->
<g id="node5" class="node">
<title>Sensore5</title>
<polygon fill="lightgray" stroke="black" points="124.8,-124.11 76.55,-124.11 76.55,-104.86 124.8,-104.86 124.8,-124.11"/>
<text text-anchor="middle" x="100.68" y="-111.56" font-family="Times New Roman,serif" font-size="9.00">Sensore5</text>
</g>
<!-- Sensore5&#45;&gt;Sinistra -->
<g id="edge6" class="edge">
<title>Sensore5&#45;&gt;Sinistra</title>
<path fill="none" stroke="green" stroke-width="0.27" d="M106.44,-104.39C112.44,-94.92 122.2,-79.51 131.22,-65.28"/>
<polygon fill="green" stroke="green" stroke-width="0.27" points="134.08,-67.31 136.47,-56.99 128.16,-63.56 134.08,-67.31"/>
</g>
<!-- Sensore6 -->
<g id="node6" class="node">
<title>Sensore6</title>
<polygon fill="lightgray" stroke="black" points="228.8,-124.11 180.55,-124.11 180.55,-104.86 228.8,-104.86 228.8,-124.11"/>
<text text-anchor="middle" x="204.68" y="-111.56" font-family="Times New Roman,serif" font-size="9.00">Sensore6</text>
</g>
<!-- Sensore6&#45;&gt;Sinistra -->
<g id="edge7" class="edge">
<title>Sensore6&#45;&gt;Sinistra</title>
<path fill="none" stroke="green" stroke-width="0.34" d="M198.91,-104.39C192.91,-94.92 183.15,-79.51 174.14,-65.28"/>
<polygon fill="green" stroke="green" stroke-width="0.34" points="177.25,-63.65 168.94,-57.07 171.33,-67.39 177.25,-63.65"/>
</g>
<!-- Sensore6&#45;&gt;Destra -->
<g id="edge8" class="edge">
<title>Sensore6&#45;&gt;Destra</title>
<path fill="none" stroke="red" stroke-width="0.39" d="M214.87,-104.39C227.73,-92.92 250.34,-72.75 268.54,-56.51"/>
<polygon fill="red" stroke="red" stroke-width="0.39" points="270.45,-59.49 275.59,-50.22 265.79,-54.27 270.45,-59.49"/>
</g>
<!-- 12&#45;&gt;Sinistra -->
<g id="edge9" class="edge">
<title>12&#45;&gt;Sinistra</title>
<path fill="none" stroke="green" stroke-width="0.18" d="M54.41,-103.42C70.78,-91.43 98.66,-70.99 120.56,-54.95"/>
<polygon fill="green" stroke="green" stroke-width="0.18" points="122.4,-57.94 128.39,-49.2 118.26,-52.29 122.4,-57.94"/>
</g>
<!-- 20&#45;&gt;12 -->
<g id="edge12" class="edge">
<title>20&#45;&gt;12</title>
<path fill="none" stroke="red" stroke-width="0.3" d="M23.01,-168.76C25.71,-160.62 29.06,-150.54 32.1,-141.34"/>
<polygon fill="red" stroke="red" stroke-width="0.3" points="35.4,-142.52 35.23,-131.92 28.76,-140.31 35.4,-142.52"/>
</g>
</g>
</svg>
